<?xml version="1.0" encoding="UTF-8" standalone="no"?>
<!-- Created with Inkscape (http://www.inkscape.org/) -->

<svg
   width="800mm"
   height="800mm"
   viewBox="0 0 800 800"
   version="1.1"
   id="svg1"
   inkscape:version="1.4 (86a8ad7, 2024-10-11)"
   sodipodi:docname="IO-Logo-color.svg"
   xmlns:inkscape="http://www.inkscape.org/namespaces/inkscape"
   xmlns:sodipodi="http://sodipodi.sourceforge.net/DTD/sodipodi-0.dtd"
   xmlns:xlink="http://www.w3.org/1999/xlink"
   xmlns="http://www.w3.org/2000/svg"
   xmlns:svg="http://www.w3.org/2000/svg">
  <sodipodi:namedview
     id="namedview1"
     pagecolor="#ffffff"
     bordercolor="#000000"
     borderopacity="0.25"
     inkscape:showpageshadow="2"
     inkscape:pageopacity="0.0"
     inkscape:pagecheckerboard="0"
     inkscape:deskcolor="#d1d1d1"
     inkscape:document-units="mm"
     inkscape:zoom="1.4142136"
     inkscape:cx="1618.2138"
     inkscape:cy="1509.3194"
     inkscape:window-width="1920"
     inkscape:window-height="991"
     inkscape:window-x="-9"
     inkscape:window-y="-9"
     inkscape:window-maximized="1"
     inkscape:current-layer="layer1"
     showgrid="false" />
  <defs
     id="defs1">
    <linearGradient
       id="swatch8"
       inkscape:swatch="solid">
      <stop
         style="stop-color:#000000;stop-opacity:1;"
         offset="0"
         id="stop8" />
    </linearGradient>
    <linearGradient
       id="swatch6"
       inkscape:swatch="solid">
      <stop
         style="stop-color:#141414;stop-opacity:1;"
         offset="0"
         id="stop6" />
    </linearGradient>
  </defs>
  <g
     inkscape:label="Layer 1"
     inkscape:groupmode="layer"
     id="layer1"
     style="display:inline">
    <path
       id="path17"
       style="fill:none;stroke:#f8f8f8;stroke-width:0;stroke-opacity:1;stroke-dasharray:none"
       d="m 421.0765,348.2143 a 52.721315,71.430266 89.961796 0 0 -71.64604,52.58332 52.721315,71.430266 89.961796 0 0 71.21381,52.85898 52.721315,71.430266 89.961796 0 0 71.64604,-52.58332 52.721315,71.430266 89.961796 0 0 -71.21381,-52.85898 z" />
    <path
       id="path1"
       style="fill:none;stroke:#fbfbfb;stroke-width:0.507475;stroke-opacity:1"
       d="m 412.81174,440.46545 c -30.40591,-3.20681 -51.45128,-23.58865 -47.00613,-45.52409 4.44512,-21.93545 32.69749,-37.11802 63.10339,-33.91121 30.40593,3.20681 51.4513,23.58865 47.00615,45.5241 -4.44512,21.93545 -32.6975,37.11801 -63.10341,33.9112 z"
       sodipodi:nodetypes="sssss" />
    <path
       id="path30"
       style="fill:#217515;stroke:#141414;stroke-width:3;stroke-dasharray:none;stroke-opacity:1;opacity:0.97660819;fill-opacity:1"
       d="m 506.44634,408.55173 a 85.052773,56.054031 0 0 1 -84.46343,49.46672 85.052773,56.054031 0 0 1 -84.46343,-49.46672 m 3.93309,-24.62215 a 85.052773,56.054031 0 0 1 80.53034,-38.01919 85.052773,56.054031 0 0 1 80.54834,38.05412" />
    <ellipse
       style="fill:#abc837;stroke:#141414;stroke-width:3;stroke-dasharray:none;stroke-opacity:1"
       id="ellipse18"
       cx="422.18228"
       cy="401.87088"
       rx="57.00174"
       ry="37.625801" />
    <path
       id="path24"
       style="fill:none;stroke:#141414;stroke-width:3;stroke-linecap:round;stroke-dasharray:none;stroke-opacity:1"
       d="m 478.60282,369.6801 a 73.546822,45.670612 0 0 1 14.49485,14.287" />
    <path
       id="path21"
       style="fill:none;stroke:#141414;stroke-width:3;stroke-linecap:round;stroke-dasharray:none;stroke-opacity:1"
       d="m 356.29355,383.96733 a 73.546822,45.670612 0 0 1 14.56233,-14.33222" />
    <path
       id="rect22"
       style="opacity:0.226744;fill:none;stroke:#141414;stroke-width:3;stroke-linecap:round"
       d="M 366.56765,408.54821 H 324.8839 l 6.5481,-12.28999 -6.5481,-12.29 v 0 l 47.58159,-10e-6" />
    <path
       id="path23"
       style="opacity:0.226744;fill:none;stroke:#141414;stroke-width:3;stroke-linecap:round"
       d="m 471.97572,383.96822 h 46.54496 c 0,0 -6.93681,11.56044 -6.5481,12.29 l 6.5481,12.28999 -40.72415,-10e-6" />
    <path
       id="path25"
       style="opacity:0.226744;fill:none;stroke:#141414;stroke-width:3;stroke-linecap:round"
       d="M 366.56765,408.54821 H 324.8839 l 6.5481,-12.28999 -6.5481,-12.29 v 0 l 47.58159,-10e-6" />
    <path
       id="path29"
       style="opacity:0;fill:none;stroke:#0d0606;stroke-width:3;stroke-linecap:round;stroke-opacity:1"
       d="m 471.97572,383.43905 h 46.54496 c 0,0 -6.93681,11.56044 -6.5481,12.29 l 6.5481,12.28999 -40.72415,-1e-5" />
    <path
       id="path32"
       style="display:inline;opacity:1;mix-blend-mode:color;fill:#9e2626;fill-opacity:1;stroke:#141414;stroke-width:3;stroke-linecap:round;stroke-opacity:1"
       d="m 364.69676,408.54821 -39.81286,0 6.5481,-12.28999 -6.5481,-12.29 v 0 l 44.77526,-10e-6 m 104.56162,10e-6 h 44.2999 c 0,0 -6.93681,11.56044 -6.5481,12.29 l 6.5481,12.28999 -39.60162,-10e-6"
       sodipodi:nodetypes="ccccccccscc" />
    <text
       xml:space="preserve"
       style="font-style:normal;font-variant:normal;font-weight:normal;font-stretch:normal;font-size:12.7px;line-height:0;font-family:sans-serif;-inkscape-font-specification:'sans-serif, Normal';font-variant-ligatures:normal;font-variant-caps:normal;font-variant-numeric:normal;font-variant-east-asian:normal;text-align:center;letter-spacing:1.5875px;writing-mode:lr-tb;direction:ltr;text-anchor:middle;opacity:0.226744;fill:#ffffff;stroke:#141414;stroke-width:3;stroke-linecap:round;stroke-dasharray:none;stroke-opacity:1"
       x="499.52673"
       y="350.04291"
       id="text34"><tspan
         sodipodi:role="line"
         id="tspan34"
         style="stroke-width:3"
         x="499.52673"
         y="350.04291" /></text>
    <text
       xml:space="preserve"
       style="font-style:normal;font-variant:normal;font-weight:normal;font-stretch:normal;font-size:50.9261px;line-height:0;font-family:sans-serif;-inkscape-font-specification:'sans-serif, Normal';font-variant-ligatures:normal;font-variant-caps:normal;font-variant-numeric:normal;font-variant-east-asian:normal;text-align:center;letter-spacing:6.36576px;writing-mode:lr-tb;direction:ltr;text-anchor:middle;opacity:1;fill:#782121;stroke:#6f3730;stroke-width:3;stroke-linecap:round;stroke-dasharray:none;stroke-opacity:1"
       x="516.51813"
       y="345.88452"
       id="text35"
       transform="scale(0.81996301,1.2195672)"><tspan
         sodipodi:role="line"
         id="tspan35"
         style="fill:#782121;stroke-width:3;stroke:#6f3730;stroke-opacity:1"
         x="519.70099"
         y="345.88452">IO</tspan></text>
    <path
       style="opacity:0;fill:#141414;fill-opacity:1;stroke:#0d0606;stroke-width:7.55904;stroke-linecap:round;stroke-opacity:1"
       d="m 1860.8751,1531.4165 c 0.9121,-10.2253 0.5311,-29.7077 -0.7414,-37.9105 -1.4037,-9.0488 -4.0733,-19.7477 -6.9051,-27.6737 -1.181,-3.3057 -2.3156,-6.5672 -2.5212,-7.2478 -0.3536,-1.1703 2.2991,-1.2375 48.8524,-1.2375 27.0746,0 49.2264,0.1114 49.2264,0.2476 0,0.1361 -2.8725,5.3068 -6.3834,11.4905 -8.5674,15.0893 -12.7529,23.6527 -13.2038,27.0144 -0.3406,2.5392 0.4939,4.4213 9.3484,21.0854 5.3473,10.0636 10.0088,18.8543 10.359,19.5349 0.6031,1.1721 -1.7172,1.2374 -43.989,1.2374 h -44.6257 z"
       id="path2"
       transform="scale(0.26458333)" />
    <path
       style="opacity:0;fill:#141414;fill-opacity:1;stroke:#0d0606;stroke-width:7.55904;stroke-linecap:round;stroke-opacity:1"
       d="m 1857.5779,1549.0941 c 0,-0.097 0.4549,-1.8544 1.0008,-3.9048 1.1657,-4.3792 1.1121,-4.1156 1.1121,-5.4643 0,-0.9318 5.4997,-1.0607 45.2548,-1.0607 24.8902,0 45.2549,-0.2646 45.2549,-0.5881 0,-0.3234 -4.4864,-8.9943 -9.9698,-19.2686 -5.4834,-10.2743 -10.1231,-19.7943 -10.3105,-21.1555 -0.278,-2.0189 0.5054,-4.1683 4.2524,-11.6672 2.5263,-5.0559 7.138,-13.6472 10.2482,-19.0919 l 5.6549,-9.8995 -41.6513,-0.1824 c -41.5961,-0.1821 -41.6495,-0.1842 -40.2427,-1.591 1.7015,-1.7015 1.8515,-5.4114 0.3078,-7.6152 l -1.1007,-1.5716 h 11.177 11.177 l 2.0313,3.8874 c 1.1171,2.1381 2.3183,3.8874 2.6693,3.8874 0.3509,0 2.8646,-1.1213 5.586,-2.4917 4.4476,-2.2398 4.8723,-2.6331 4.2001,-3.8891 -0.7398,-1.3823 -0.3977,-1.3974 31.8039,-1.3974 17.9035,0 32.5518,0.1595 32.5518,0.3544 0,0.195 -2.4949,4.5702 -5.5443,9.7228 -13.0568,22.0625 -22.0328,38.5318 -22.0328,40.4264 0,0.6614 1.3949,3.8081 3.0999,6.9926 1.7049,3.1844 6.994,13.1084 11.7535,22.0533 4.7596,8.9449 9.5587,17.934 10.6648,19.9758 l 2.0111,3.7123 h -24.5549 -24.5549 l 0.01,-2.2811 c 0.01,-2.2676 -0.023,-2.2865 -4.9429,-3.1879 -2.7224,-0.4987 -5.3025,-0.7723 -5.7336,-0.6079 -0.4311,0.1644 -0.9917,1.5989 -1.2458,3.1879 l -0.462,2.889 h -24.7404 c -13.6072,0 -24.7366,-0.08 -24.7319,-0.1768 z"
       id="path3"
       transform="scale(0.26458333)" />
    <path
       style="opacity:0;fill:#141414;fill-opacity:1;stroke:#0d0606;stroke-width:7.55904;stroke-linecap:round;stroke-opacity:1"
       d="m 1857.5779,1549.0941 c 0,-0.097 0.4549,-1.8544 1.0008,-3.9048 1.1657,-4.3792 1.1121,-4.1156 1.1121,-5.4643 0,-0.9318 5.4997,-1.0607 45.2548,-1.0607 24.8902,0 45.2549,-0.2646 45.2549,-0.5881 0,-0.3234 -4.4864,-8.9943 -9.9698,-19.2686 -5.4834,-10.2743 -10.1231,-19.7943 -10.3105,-21.1555 -0.278,-2.0189 0.5054,-4.1683 4.2524,-11.6672 2.5263,-5.0559 7.138,-13.6472 10.2482,-19.0919 l 5.6549,-9.8995 -41.6513,-0.1824 c -41.5961,-0.1821 -41.6495,-0.1842 -40.2427,-1.591 1.7015,-1.7015 1.8515,-5.4114 0.3078,-7.6152 l -1.1007,-1.5716 h 11.177 11.177 l 2.0313,3.8874 c 1.1171,2.1381 2.3183,3.8874 2.6693,3.8874 0.3509,0 2.8646,-1.1213 5.586,-2.4917 4.4476,-2.2398 4.8723,-2.6331 4.2001,-3.8891 -0.7398,-1.3823 -0.3977,-1.3974 31.8039,-1.3974 17.9035,0 32.5518,0.1595 32.5518,0.3544 0,0.195 -2.4949,4.5702 -5.5443,9.7228 -13.0568,22.0625 -22.0328,38.5318 -22.0328,40.4264 0,0.6614 1.3949,3.8081 3.0999,6.9926 1.7049,3.1844 6.994,13.1084 11.7535,22.0533 4.7596,8.9449 9.5587,17.934 10.6648,19.9758 l 2.0111,3.7123 h -24.5549 -24.5549 l 0.01,-2.2811 c 0.01,-2.2676 -0.023,-2.2865 -4.9429,-3.1879 -2.7224,-0.4987 -5.3025,-0.7723 -5.7336,-0.6079 -0.4311,0.1644 -0.9917,1.5989 -1.2458,3.1879 l -0.462,2.889 h -24.7404 c -13.6072,0 -24.7366,-0.08 -24.7319,-0.1768 z"
       id="path4"
       transform="scale(0.26458333)" />
    <path
       style="opacity:0;fill:#141414;fill-opacity:1;stroke:#0d0606;stroke-width:7.55904;stroke-linecap:round;stroke-opacity:1"
       d="m 1860.8751,1531.4165 c 0.9121,-10.2253 0.5311,-29.7077 -0.7414,-37.9105 -1.4037,-9.0488 -4.0733,-19.7477 -6.9051,-27.6737 -1.181,-3.3057 -2.3156,-6.5672 -2.5212,-7.2478 -0.3536,-1.1703 2.2991,-1.2375 48.8524,-1.2375 27.0746,0 49.2264,0.1114 49.2264,0.2476 0,0.1361 -2.8725,5.3068 -6.3834,11.4905 -8.5674,15.0893 -12.7529,23.6527 -13.2038,27.0144 -0.3406,2.5392 0.4939,4.4213 9.3484,21.0854 5.3473,10.0636 10.0088,18.8543 10.359,19.5349 0.6031,1.1721 -1.7172,1.2374 -43.989,1.2374 h -44.6257 z"
       id="path5"
       transform="scale(0.26458333)" />
    <path
       style="opacity:0;fill:#141414;fill-opacity:1;stroke:#0d0606;stroke-width:7.55904;stroke-linecap:round;stroke-opacity:1"
       d="m 1860.8751,1531.4165 c 0.9121,-10.2253 0.5311,-29.7077 -0.7414,-37.9105 -1.4037,-9.0488 -4.0733,-19.7477 -6.9051,-27.6737 -1.181,-3.3057 -2.3156,-6.5672 -2.5212,-7.2478 -0.3536,-1.1703 2.2991,-1.2375 48.8524,-1.2375 27.0746,0 49.2264,0.1114 49.2264,0.2476 0,0.1361 -2.8725,5.3068 -6.3834,11.4905 -8.5674,15.0893 -12.7529,23.6527 -13.2038,27.0144 -0.3406,2.5392 0.4939,4.4213 9.3484,21.0854 5.3473,10.0636 10.0088,18.8543 10.359,19.5349 0.6031,1.1721 -1.7172,1.2374 -43.989,1.2374 h -44.6257 z"
       id="path6"
       transform="scale(0.26458333)" />
    <text
       xml:space="preserve"
       style="font-style:normal;font-variant:normal;font-weight:normal;font-stretch:normal;font-size:14.9958px;line-height:0;font-family:sans-serif;-inkscape-font-specification:'sans-serif, Normal';font-variant-ligatures:normal;font-variant-caps:normal;font-variant-numeric:normal;font-variant-east-asian:normal;text-align:center;letter-spacing:1.5875px;writing-mode:lr-tb;direction:ltr;text-anchor:middle;fill:#000000;stroke:#000000;stroke-width:0.499859;opacity:0.99025341"
       id="text16"
       transform="matrix(1,0,0,0.99999862,-1.1213804e-6,5.9779461e-4)"><textPath
         xlink:href="#path17"
         startOffset="50%"
         id="textPath18"><tspan
           style="font-style:normal;font-variant:normal;font-weight:normal;font-stretch:normal;font-size:14.9958px;line-height:0;font-family:sans-serif;-inkscape-font-specification:'sans-serif, Normal';font-variant-ligatures:normal;font-variant-caps:normal;font-variant-numeric:normal;font-variant-east-asian:normal;text-align:center;letter-spacing:1.5875px;text-anchor:middle;stroke-width:0.499859"
           id="tspan16">Technical Solutions</tspan></textPath></text>
    <text
       xml:space="preserve"
       style="font-style:normal;font-variant:normal;font-weight:normal;font-stretch:normal;font-size:14.9958px;line-height:0;font-family:sans-serif;-inkscape-font-specification:'sans-serif, Normal';font-variant-ligatures:normal;font-variant-caps:normal;font-variant-numeric:normal;font-variant-east-asian:normal;text-align:center;letter-spacing:0.937236px;writing-mode:lr-tb;direction:ltr;text-anchor:middle;fill:#000000;stroke:#000000;stroke-width:0.499859"
       id="text1"><textPath
         xlink:href="#path1"
         startOffset="50%"
         id="textPath17"><tspan
           style="font-style:normal;font-variant:normal;font-weight:normal;font-stretch:normal;font-size:14.9958px;line-height:0;font-family:sans-serif;-inkscape-font-specification:'sans-serif, Normal';font-variant-ligatures:normal;font-variant-caps:normal;font-variant-numeric:normal;font-variant-east-asian:normal;text-align:center;letter-spacing:0.937236px;text-anchor:middle;stroke-width:0.499859"
           id="tspan14">SoLoio </tspan><tspan
           style="font-style:normal;font-variant:normal;font-weight:normal;font-stretch:normal;font-size:14.9958px;line-height:0;font-family:sans-serif;-inkscape-font-specification:'sans-serif, Normal';font-variant-ligatures:normal;font-variant-caps:normal;font-variant-numeric:normal;font-variant-east-asian:normal;text-align:center;letter-spacing:0.937236px;text-anchor:middle;stroke-width:0.499859"
           id="tspan2" /></textPath></text>
  </g>
</svg>
